<?xml version="1.0" encoding="UTF-8"?>
<svg width="211px" height="232px" viewBox="0 0 211 232" version="1.1" xmlns="http://www.w3.org/2000/svg" xmlns:xlink="http://www.w3.org/1999/xlink">
    <title>Monasvg</title>
    <g id="Page-2" stroke="none" stroke-width="1" fill="none" fill-rule="evenodd">
        <g id="Mona" transform="translate(-41.876649, -39.424930)">
            <ellipse id="Big-Face" stroke="#FDFAFA" stroke-width="5" cx="147.876649" cy="149.92493" rx="99.5" ry="95"></ellipse>
            <ellipse id="Big-Face" stroke="#000000" stroke-width="5" fill="#FFFCFC" cx="148.376649" cy="150.42493" rx="95" ry="89.5"></ellipse>
            <path d="M60.5859058,41.0630658 C64.555746,40.0593703 68.9084831,40.5701179 72.7031628,42.83321 C74.9835053,44.1931733 76.8895689,46.0992369 78.2495322,48.3795794 L78.2495322,48.3795794 L96.0565646,78.2378357 C98.3196567,82.0325155 98.8304043,86.3852525 97.8267088,90.3550927 C96.8230134,94.3249329 94.304875,97.9118762 90.5101952,100.174968 C88.0320034,101.652926 85.2002588,102.433217 82.3148136,102.433217 L82.3148136,102.433217 L46.7007488,102.433217 C42.2824708,102.433217 38.2824708,100.642356 35.3870403,97.7469258 C32.4916098,94.8514953 30.7007488,90.8514953 30.7007488,86.4332173 C30.7007488,83.5477721 31.4810401,80.7160275 32.9589978,78.2378357 L32.9589978,78.2378357 L50.7660302,48.3795794 C53.0291224,44.5848996 56.6160656,42.0667612 60.5859058,41.0630658 Z" id="Ear-L" stroke="#F9F9F9" stroke-width="4" fill="#090808" transform="translate(64.507781, 62.933217) rotate(-37.000000) translate(-64.507781, -62.933217) "></path>
            <path d="M222.585906,41.0630658 C226.555746,40.0593703 230.908483,40.5701179 234.703163,42.83321 C236.983505,44.1931733 238.889569,46.0992369 240.249532,48.3795794 L240.249532,48.3795794 L258.056565,78.2378357 C260.319657,82.0325155 260.830404,86.3852525 259.826709,90.3550927 C258.823013,94.3249329 256.304875,97.9118762 252.510195,100.174968 C250.032003,101.652926 247.200259,102.433217 244.314814,102.433217 L244.314814,102.433217 L208.700749,102.433217 C204.282471,102.433217 200.282471,100.642356 197.38704,97.7469258 C194.49161,94.8514953 192.700749,90.8514953 192.700749,86.4332173 C192.700749,83.5477721 193.48104,80.7160275 194.958998,78.2378357 L194.958998,78.2378357 L212.76603,48.3795794 C215.029122,44.5848996 218.616066,42.0667612 222.585906,41.0630658 Z" id="Ear-L" stroke="#F9F9F9" stroke-width="4" fill="#090808" transform="translate(226.507781, 62.933217) scale(-1, 1) rotate(-37.000000) translate(-226.507781, -62.933217) "></path>
            <g id="Mouth" transform="translate(129.376649, 179.424930)">
                <circle id="Oval" stroke="#000000" stroke-width="4.5" cx="10" cy="12" r="7.75"></circle>
                <circle id="Oval" stroke="#000000" stroke-width="4.5" cx="27" cy="12" r="7.75"></circle>
                <rect id="Rectangle" fill="#FFFDFD" x="0" y="0" width="37" height="12"></rect>
            </g>
            <line x1="147.876649" y1="190.42493" x2="147.876649" y2="184.42493" id="Mouse-2" stroke="#070707" stroke-width="6" stroke-linecap="square"></line>
            <path d="M147.951658,54.9248761 L149.205565,54.933114 L149.95501,54.9435189 C150.548121,54.9549462 151.139802,54.9712001 151.727202,54.9925051 C178.501896,55.9316077 202.578489,66.8177713 219.944676,83.8362871 C237.295414,100.839663 247.951649,123.960135 247.951649,149.42493 C247.951649,166.657657 243.070749,182.814996 234.53942,196.731284 C234.295727,197.128796 234.049053,197.524482 233.798912,197.91726 C233.335507,197.922471 232.871369,197.924942 232.406519,197.924657 C197.629771,197.903326 166.861912,182.458652 147.946553,158.794958 C129.037719,182.460456 98.2714825,197.903328 63.4967798,197.924657 C63.0305072,197.924943 62.5649518,197.922456 62.1022883,197.915781 C61.8531913,197.522791 61.6070512,197.127946 61.3638791,196.731284 C52.8325499,182.814996 47.9516493,166.657657 47.9516493,149.42493 C47.9516493,123.960297 58.6077501,100.839956 75.9581357,83.8364353 C93.324177,66.8175723 117.400564,55.9309362 144.1781,54.9909962 C144.767718,54.9710907 145.357324,54.9549051 145.948194,54.9437386 L145.948194,54.9437386 L146.696044,54.9331165 L147.951658,54.9248761 Z" id="Combined-Shape" stroke="#FFFEFE" stroke-width="5" fill="#020202"></path>
            <path d="M80.876649,138.829837 C102.864319,138.829837 115.864319,143.163171 119.876649,151.829837" id="Eye-L" stroke="#FFFDFD" stroke-width="5" stroke-linecap="round"></path>
            <path d="M175.876649,138.829837 C197.864319,138.829837 210.864319,143.163171 214.876649,151.829837" id="Eye-R" stroke="#FFFDFD" stroke-width="5" stroke-linecap="round" transform="translate(195.376649, 145.329837) scale(-1, 1) translate(-195.376649, -145.329837) "></path>
            <ellipse id="Nose" fill="#FCB6A4" cx="147.876649" cy="179.42493" rx="7" ry="5"></ellipse>
            <text id="MoNASCRIPT" font-family="STHeitiTC-Medium, Heiti TC" font-size="24" font-weight="bold" letter-spacing="6.85714286">
                <tspan x="41.876649" y="272.42493" fill="#000000">M</tspan>
                <tspan x="70.7897919" y="272.42493" fill="#FCB6A4">o</tspan>
                <tspan x="93.3669347" y="272.42493" fill="#000000">NASCRIPT</tspan>
            </text>
        </g>
    </g>
</svg>