<?xml version="1.0" encoding="UTF-8"?>
<svg width="295px" height="275px" viewBox="0 0 295 275" version="1.1" xmlns="http://www.w3.org/2000/svg" xmlns:xlink="http://www.w3.org/1999/xlink">
    <title>Monasvg</title>
    <g id="Page-2" stroke="none" stroke-width="1" fill="none" fill-rule="evenodd">
        <g id="Mona" transform="translate(-0.000000, -0.000000)">
            <ellipse id="Big-Face" stroke="#FDFAFA" stroke-width="5" cx="147" cy="149.5" rx="99.5" ry="95"></ellipse>
            <ellipse id="Big-Face" stroke="#000000" stroke-width="5" fill="#FFFCFC" cx="147.5" cy="150" rx="95" ry="89.5"></ellipse>
            <path d="M60.5859058,41.0630658 C64.555746,40.0593703 68.9084831,40.5701179 72.7031628,42.83321 C74.9835053,44.1931733 76.8895689,46.0992369 78.2495322,48.3795794 L78.2495322,48.3795794 L96.0565646,78.2378357 C98.3196567,82.0325155 98.8304043,86.3852525 97.8267088,90.3550927 C96.8230134,94.3249329 94.304875,97.9118762 90.5101952,100.174968 C88.0320034,101.652926 85.2002588,102.433217 82.3148136,102.433217 L82.3148136,102.433217 L46.7007488,102.433217 C42.2824708,102.433217 38.2824708,100.642356 35.3870403,97.7469258 C32.4916098,94.8514953 30.7007488,90.8514953 30.7007488,86.4332173 C30.7007488,83.5477721 31.4810401,80.7160275 32.9589978,78.2378357 L32.9589978,78.2378357 L50.7660302,48.3795794 C53.0291224,44.5848996 56.6160656,42.0667612 60.5859058,41.0630658 Z" id="Ear-L" stroke="#F9F9F9" stroke-width="4" fill="#090808" transform="translate(64.507781, 62.933217) rotate(-37.000000) translate(-64.507781, -62.933217) "></path>
            <path d="M225.585906,41.0630658 C229.555746,40.0593703 233.908483,40.5701179 237.703163,42.83321 C239.983505,44.1931733 241.889569,46.0992369 243.249532,48.3795794 L243.249532,48.3795794 L261.056565,78.2378357 C263.319657,82.0325155 263.830404,86.3852525 262.826709,90.3550927 C261.823013,94.3249329 259.304875,97.9118762 255.510195,100.174968 C253.032003,101.652926 250.200259,102.433217 247.314814,102.433217 L247.314814,102.433217 L211.700749,102.433217 C207.282471,102.433217 203.282471,100.642356 200.38704,97.7469258 C197.49161,94.8514953 195.700749,90.8514953 195.700749,86.4332173 C195.700749,83.5477721 196.48104,80.7160275 197.958998,78.2378357 L197.958998,78.2378357 L215.76603,48.3795794 C218.029122,44.5848996 221.616066,42.0667612 225.585906,41.0630658 Z" id="Ear-R" stroke="#F9F9F9" stroke-width="4" fill="#090808" transform="translate(229.507781, 62.933217) scale(-1, 1) rotate(-37.000000) translate(-229.507781, -62.933217) "></path>
            <g id="Mouth" transform="translate(128.500000, 179.000000)">
                <circle id="Oval" stroke="#000000" stroke-width="4.5" cx="10" cy="12" r="7.75"></circle>
                <circle id="Oval" stroke="#000000" stroke-width="4.5" cx="27" cy="12" r="7.75"></circle>
                <rect id="Rectangle" fill="#FFFDFD" x="0" y="0" width="37" height="12"></rect>
            </g>
            <line x1="147" y1="190" x2="147" y2="184" id="Mouse-2" stroke="#070707" stroke-width="6" stroke-linecap="square"></line>
            <path d="M147.075007,54.4999486 L148.347947,54.508115 L149.07894,54.5186001 C149.671856,54.5300268 150.263345,54.5462771 150.850553,54.5675751 C177.625247,55.5066777 201.70184,66.3928414 219.068027,83.4113571 C236.418765,100.414733 247.075,123.535205 247.075,149 C247.075,166.232727 242.1941,182.390066 233.662771,196.306354 C233.419078,196.703866 233.172404,197.099552 232.922263,197.49233 C232.458858,197.497541 231.99472,197.500012 231.52987,197.499727 C196.753122,197.478396 165.985263,182.033722 147.069904,158.370028 C128.16107,182.035527 97.3948335,197.478398 62.6201308,197.499727 C62.1538582,197.500013 61.6883028,197.497526 61.2256393,197.490851 C60.9765423,197.097861 60.7304022,196.703016 60.4872301,196.306354 C51.9559009,182.390066 47.0750003,166.232727 47.0750003,149 C47.0750003,123.535367 57.7311011,100.415026 75.0814867,83.4115054 C92.447528,66.3926423 116.523915,55.5060062 143.301451,54.5660662 C143.890875,54.5461673 144.480288,54.5299857 145.070962,54.5188197 L145.070962,54.5188197 L145.800656,54.5081175 L147.075007,54.4999486 Z" id="Combined-Shape" stroke="#FFFEFE" stroke-width="5" fill="#020202"></path>
            <path d="M80,138.404907 C101.98767,138.404907 114.98767,142.738241 119,151.404907" id="Eye-L" stroke="#FFFDFD" stroke-width="5" stroke-linecap="round"></path>
            <path d="M175,138.404907 C196.98767,138.404907 209.98767,142.738241 214,151.404907" id="Eye-R" stroke="#FFFDFD" stroke-width="5" stroke-linecap="round" transform="translate(194.500000, 144.904907) scale(-1, 1) translate(-194.500000, -144.904907) "></path>
            <ellipse id="Nose" fill="#FCB6A4" cx="147" cy="179" rx="7" ry="5"></ellipse>
            <text id="MoNASCRIPT" font-family="STHeitiTC-Medium, Heiti TC" font-size="24" font-weight="bold" letter-spacing="6.85714286">
                <tspan x="41" y="272" fill="#000000">M</tspan>
                <tspan x="69.9131429" y="272" fill="#FCB6A4">o</tspan>
                <tspan x="92.4902857" y="272" fill="#000000">NASCRIPT</tspan>
            </text>
        </g>
    </g>
</svg>